<svg xmlns="http://www.w3.org/2000/svg" width="225.698" height="447.595" viewBox="0 0 225.698 447.595"><g transform="translate(-460.694 -129.351)"><g transform="translate(469.67 242.607)"><path d="M495.28,256.51s-3.391-6.9-3.944-7.94-3.8-2.69-7.643-3.6c-3.742-.89-8.834-2.66-9.408-2.32a3.2,3.2,0,0,0-1.956,1.91,5.955,5.955,0,0,0-.393,3.16,3.724,3.724,0,0,0-1.254,3.49,3.2,3.2,0,0,0-.617,3.66s-1.531,1.48-.659,3.01a26.4,26.4,0,0,1,3.933,2.5c.925.9,7.42,3.83,14.107,5.74C487.446,266.12,494.419,265.91,495.28,256.51Z" transform="translate(-469.138 -242.607)" fill="#f29792"/></g><g transform="translate(487.978 253.5)"><path d="M486.36,266.12s8.292,1.36,11.109-.16-.457-9.47-.457-9.47l-5.251-2.99Z" transform="translate(-486.36 -253.5)" fill="#f29792"/></g><g transform="translate(477.996 253.16)"><path d="M483.88,253.16s.128,3.82.744,4.87-7.654,2.7-7.654,2.7S478.947,253.43,483.88,253.16Z" transform="translate(-476.97 -253.16)" fill="#ec4e66"/></g><g transform="translate(469.576 242.6)"><path d="M475.333,242.98s9.057,4.14,8.526,5.59a2.529,2.529,0,0,1-1.658,1.69l2.9,3.29s.617,3.2-3.274,2.9c0,0,.9,2.94-2.817,2.22,0,0-.319,2.19-2.1,2.14s-7.494-2.94-7.494-2.94-1.084-1.18.5-3.07a3.113,3.113,0,0,1,.627-3.64,5.087,5.087,0,0,1,1.339-4.38,4.476,4.476,0,0,1,2.488-4.18S474.95,242.8,475.333,242.98Z" transform="translate(-469.049 -242.6)" fill="#ec4e66"/></g><g transform="translate(479.418 248.41)"><path d="M490.493,248.41s-6.91.14-10.641,1.77c-.85.37-1.595.87-1.541,1.75s1.456,1.93,4.454,2.01a26.383,26.383,0,0,1,6.825,1.48S492.683,254.67,490.493,248.41Z" transform="translate(-478.307 -248.41)" fill="#f29792"/></g><g transform="translate(472.23 242.602)"><path d="M471.784,246.8s10.28,3.31,10.981,4.12,2.03-2.75,1.382-3.39a78.376,78.376,0,0,0-9.589-4.91C473.676,242.39,470.689,244.36,471.784,246.8Z" transform="translate(-471.546 -242.602)" fill="#f29792"/></g><g transform="translate(460.694 241.177)"><path d="M477.167,243.02s-16.105-3.1-16.435-1.26,1.233,2.16,14.425,5.78C488,251.06,477.167,243.02,477.167,243.02Z" transform="translate(-460.694 -241.177)" fill="#f29792"/></g><g transform="translate(561.147 552.363)"><path d="M581.862,553.68s-5.135,7.22-12.331,8.78-14.287,4.04-14.34,8.31,20.814,6.82,29.053,2.51c12.289-6.43,13.543-4.49,14.9-7.7s-1.637-11.81-1.552-12.83C597.712,551.5,581.862,553.68,581.862,553.68Z" transform="translate(-555.19 -552.363)" fill="#1f355b"/></g><g transform="translate(587.805 548.02)"><path d="M581.078,550.12a29.563,29.563,0,0,0-.8,3.56c.138.07,16.222,1.88,15.733-.92-.393-2.27-.957-4.74-.957-4.74Z" transform="translate(-580.267 -548.02)" fill="#9e9efb"/></g><g transform="translate(620.091 551.415)"><path d="M632.486,553.21s-3.657,6.91-9.918,9.26c-6.687,2.52-12.044,5.41-11.927,9.57s16.339,8.38,28.139.39c7.452-5.05,9.823-5.07,11.013-8.25s-2.073-11.44-2.03-12.44C647.836,550.5,632.486,553.21,632.486,553.21Z" transform="translate(-610.638 -551.415)" fill="#1f355b"/></g><g transform="translate(641.758 546.94)"><path d="M631.02,549.62a32.041,32.041,0,0,0,.181,3.59c.138.07,15.68,1.27,15.287-1.47a21.075,21.075,0,0,0-1.51-4.8Z" transform="translate(-631.02 -546.94)" fill="#9e9efb"/></g><g transform="translate(562.923 322.525)"><path d="M578.706,338.58s-14.436,59.92-17.742,78.17c-2.806,15.53-5.049,31.71-3.7,42.92,1.669,13.88,22.558,85.84,21.686,89.91s24.907,1.59,24.907,1.59-18.933-81.21-15.765-96.14c2.349-11.06,22.951-84.56,26.108-80.79s7.069,69.36,9.408,80.25,9.514,96.92,9.514,96.92,16.041,2.23,20.336-1.18c0,0,1.956-73.46.457-93.88-.563-7.78,9.695-93.28-3.466-127.7C643.509,310.46,578.706,338.58,578.706,338.58Z" transform="translate(-556.861 -322.525)" fill="#816ddc"/></g><g transform="translate(490.466 203.491)"><path d="M488.7,269.07s50.027,10.43,59.977,8.13c4.6-1.06,10.662-7.04,16.424-14.07,1.9-2.31,3.763-4.74,5.528-7.14v-.01c7.069-9.6,12.608-18.8,12.608-18.8s20.889-23.03,4.125-33.29c0,0-6.081-2.14-11.672,3.49s-12.151,17.41-13.618,20.42-21.984,30.84-23.047,31.47S529,257.68,521.8,257.12c-11.725-.92-29.287-5.21-29.287-5.21Z" transform="translate(-488.7 -203.491)" fill="#fff"/></g><path d="M598.169,198.76s-21.505,4.18-24.057,6.31c-2.775,2.26-7.654,24.42-7.941,30.59s2.594,31.95,5.358,41.55,2.264,56.88.51,70.18c0,0,43.3,11.57,85.862,6.36,0,0-7.133-49.74-5.432-62.9,2.179-16.85,7.431-55.68,7.431-55.68s-3.774-27.05-7.558-30.06-29.9-6.35-29.9-6.35H598.169Z" transform="translate(6.648 0)" fill="#bcc0cf"/><path d="M606.072,136.21s-25.864-9-24.248,23.33,7.675,35.62,24.694,31.1,18.444-24.92,20.655-34.74S614.534,137.62,606.072,136.21Z" transform="translate(7.632 0)" fill="#f29792"/><path d="M593.08,203.13s5.326,3.31,25.5-5.05c0,0-.574-13.02,3.391-25.17s-27.086,16.21-27.086,16.21c.33.22.383,1.43.2,3.13a31.833,31.833,0,0,1-1,5.02C592.963,201.33,593.08,199.58,593.08,203.13Z" transform="translate(8.346 0)" fill="#f29792"/><path d="M623.622,171.94s.074-8.64-3.742-9.43-4.327-3.67-4.327-3.67l-2.19.48s.4-1.52-3.242-3.53-25.417-.24-28.149-3.19,1.233-20.45,7.176-22.17,19.741-1.56,32.348,1.77a14.113,14.113,0,0,1,10.3,12.87C632.265,151.94,626.726,167.26,623.622,171.94Z" transform="translate(7.59)" fill="#01143f"/><path d="M594.04,197.27c20.049-3.17,23.047-13.9,23.089-14.06-7.792,9.45-22.09,9.04-22.09,9.04A33.549,33.549,0,0,1,594.04,197.27Z" transform="translate(8.407 0)" fill="#ec4e65"/><path d="M595.327,207.38s-3.646,5.07-5.857,18.07-1.828,35.41-1.828,35.41l5.081.58s7.686-45.69,6.357-53.65Z" transform="translate(8.002 0)" fill="#434343"/><path d="M613.64,158.84c1.137-2.85,7.59-2.49,6.931,2.03s-6,11.47-8.132,10.17S612.067,162.77,613.64,158.84Z" transform="translate(9.504 0)" fill="#ec4e65"/><path d="M574.621,205.04s-12.214,15.2-7.686,54.99C575.11,331.92,553.7,447.32,553.7,447.32l22.1,6.51s21.112-147.52,15.733-201.06c-2.456-24.4-9.727-32.52,1.754-52.84C593.277,199.92,582.1,200.45,574.621,205.04Z" transform="translate(5.863 0)" fill="#fff"/><path d="M627.354,199.58s-34.974,33.23-37.717,58.43-7.2,195.81-7.2,195.81l83.268-4.56s-7.654-90.07-9.525-101.33-5.73-75.96,2.7-105.98c4.529-16.13-.861-36.59-11.2-38.82S627.354,199.58,627.354,199.58Z" transform="translate(7.675 0)" fill="#fff"/><path d="M636.3,203.89s-13.469,3.49-6.059,26.75c5.8,18.22,6.591,22.13,6.591,22.13l31.083-7.3s-9.11-40.01-23.982-42.16C643.923,203.3,639.193,202.66,636.3,203.89Z" transform="translate(10.549 0)" fill="#dbdff0"/><path d="M539.96,326.98l60.923,59.3,40.459-36.78L582,288.76Z" transform="translate(4.997 0)" fill="#e2ded2"/><path d="M545.38,328.16l54.1,52.67,35.942-32.67-52.706-53.95Z" transform="translate(5.339 0)" fill="#f1ecdf"/><path d="M557.325,319.35l-3.8-3.69,14.532-13.21,4.358,3.18Z" transform="translate(5.853 0)" fill="#f1ecdf"/><path d="M618.315,194.48s-10.545,5.99-21,7.33l5.549,8.33,17.593-11.4Z" transform="translate(8.613 0)" fill="#a7aab8"/><path d="M594.143,197.27s1.116,3.43,3.487,4.55l-5.22,6.84.191-9.07Z" transform="translate(8.304 0)" fill="#a7aab8"/><path d="M597.575,201.82l-4.125,5.42s2.615,3.11,8.239.75Z" transform="translate(8.369 0)" fill="#434343"/><path d="M641.31,251.51s4.061,24.86,3.774,26.45S663.464,272.97,641.31,251.51Z" transform="translate(11.387 0)" fill="#a7aab8"/><path d="M613.994,310.2a5.415,5.415,0,0,1-2.392,2.24c-2.583.97-6.7-.57-8.3,2.9s8.685,11.62,11.268,12.05,6.229-3.55,8.611-11.2S613.994,310.2,613.994,310.2Z" transform="translate(8.98 0)" fill="#f29792"/><path d="M604.9,314.25a107.647,107.647,0,0,0-8.8,8.46c-3.838,4.15-7.537,9.73-6.878,10.78,1.467,2.34,5.039-2.89,9.142-6.75,3.784-3.56,3.157-2.94,3.157-2.94s.011-.38-3.3,4.29c-3.551,5.02-6.644,10.52-5.8,11.74.4.59,2.062,2.05,2.849-.35-.712,1.12-.829.85-.361,1.19,2.456,1.76,8.9-4.8,11.46-7.41-1.956,2.01-3.157,3.7-.935,3.87,2.53.2,11.194-9.49,14.659-12.66C623.89,321,604.9,314.25,604.9,314.25Z" transform="translate(8.098 0)" fill="#f29792"/><path d="M635.811,205.45c-2.817,1.03-3.891,5.74-2.732,19.38s6.261,19.92,8.175,23.08,12.385,22.61,10.5,25.17-19.666,19.07-20.7,20.41-20.889,18.26-20.889,18.26l10.11,13.29s42.883-31.51,46.232-34.66,13.341-9.76,9.652-20.75c-3.763-11.17-10.513-37.32-11.715-39.36S654.456,198.66,635.811,205.45Z" transform="translate(9.423 0)" fill="#fff"/></g></svg>