<svg xmlns="http://www.w3.org/2000/svg" xmlns:xlink="http://www.w3.org/1999/xlink" width="1073.267" height="588" viewBox="0 0 1073.267 588"><defs><filter id="a" x="78.768" y="385.091" width="992.368" height="161.949" filterUnits="userSpaceOnUse"><feOffset dy="10" input="SourceAlpha"/><feGaussianBlur stdDeviation="5" result="b"/><feFlood flood-color="#ff4d4d" flood-opacity="0.302"/><feComposite operator="in" in2="b"/><feComposite in="SourceGraphic"/></filter><filter id="c" x="78.813" y="182.239" width="992.025" height="364.684" filterUnits="userSpaceOnUse"><feOffset dy="10" input="SourceAlpha"/><feGaussianBlur stdDeviation="5" result="d"/><feFlood flood-color="#4dff5f" flood-opacity="0.302"/><feComposite operator="in" in2="d"/><feComposite in="SourceGraphic"/></filter><filter id="e" x="78.734" y="140.407" width="994.533" height="406.122" filterUnits="userSpaceOnUse"><feOffset dy="10" input="SourceAlpha"/><feGaussianBlur stdDeviation="5" result="f"/><feFlood flood-color="#ffce47" flood-opacity="0.302"/><feComposite operator="in" in2="f"/><feComposite in="SourceGraphic"/></filter></defs><g transform="translate(1)"><g transform="translate(-92 -1776)"><rect width="1" height="520" transform="translate(187 1776)" fill="#e2e2e2"/><rect width="959" height="1" transform="translate(187 2295)" fill="#e2e2e2"/><rect width="959" height="1" transform="translate(187 2215)" fill="#e2e2e2"/><rect width="959" height="1" transform="translate(187 2056)" fill="#e2e2e2"/><rect width="959" height="1" transform="translate(187 1897)" fill="#e2e2e2"/><rect width="959" height="1" transform="translate(187 2135)" fill="#e2e2e2"/><rect width="959" height="1" transform="translate(187 1976)" fill="#e2e2e2"/><rect width="959" height="1" transform="translate(187 1817)" fill="#e2e2e2"/></g><text transform="translate(65 519)" fill="#3b3858" font-size="28" font-family="NotoSans-Bold, Noto Sans" font-weight="700"><tspan x="-16.016" y="0">0</tspan></text><text transform="translate(65 450)" fill="#3b3858" font-size="28" font-family="NotoSans-Bold, Noto Sans" font-weight="700"><tspan x="-49.392" y="0">20k</tspan></text><text transform="translate(94 580)" fill="#3b3858" font-size="28" font-family="NotoSans-Bold, Noto Sans" font-weight="700"><tspan x="0" y="0">Mar 08</tspan></text><text transform="translate(242 580)" fill="#3b3858" font-size="28" font-family="NotoSans-Bold, Noto Sans" font-weight="700"><tspan x="0" y="0">Mar 15</tspan></text><text transform="translate(538 580)" fill="#3b3858" font-size="28" font-family="NotoSans-Bold, Noto Sans" font-weight="700"><tspan x="0" y="0">Mar 29</tspan></text><text transform="translate(390 580)" fill="#3b3858" font-size="28" font-family="NotoSans-Bold, Noto Sans" font-weight="700"><tspan x="0" y="0">Mar 22</tspan></text><text transform="translate(685 580)" fill="#3b3858" font-size="28" font-family="NotoSans-Bold, Noto Sans" font-weight="700"><tspan x="0" y="0">Apr 05</tspan></text><text transform="translate(827 580)" fill="#3b3858" font-size="28" font-family="NotoSans-Bold, Noto Sans" font-weight="700"><tspan x="0" y="0">Apr 12</tspan></text><text transform="translate(969 580)" fill="#3b3858" font-size="28" font-family="NotoSans-Bold, Noto Sans" font-weight="700"><tspan x="0" y="0">Apr 19</tspan></text><text transform="translate(65 291)" fill="#3b3858" font-size="28" font-family="NotoSans-Bold, Noto Sans" font-weight="700"><tspan x="-65.408" y="0">100k</tspan></text><text transform="translate(65 52)" fill="#3b3858" font-size="28" font-family="NotoSans-Bold, Noto Sans" font-weight="700"><tspan x="-65.408" y="0">250k</tspan></text><text transform="translate(65 370)" fill="#3b3858" font-size="28" font-family="NotoSans-Bold, Noto Sans" font-weight="700"><tspan x="-49.392" y="0">50k</tspan></text><text transform="translate(65 132)" fill="#3b3858" font-size="28" font-family="NotoSans-Bold, Noto Sans" font-weight="700"><tspan x="-65.408" y="0">200k</tspan></text><text transform="translate(65 211)" fill="#3b3858" font-size="28" font-family="NotoSans-Bold, Noto Sans" font-weight="700"><tspan x="-65.408" y="0">150k</tspan></text><g transform="matrix(1, 0, 0, 1, -1, 0)" filter="url(#a)"><path d="M1707.869,3865.714l337.353-33.1s244.593-8.884,332.61-33.333,123.876-76.607,286.871-55.418" transform="translate(-1611.37 -3346.41)" fill="none" stroke="#ff4d4d" stroke-linecap="round" stroke-linejoin="round" stroke-width="5"/></g><g transform="matrix(1, 0, 0, 1, -1, 0)" filter="url(#c)"><path d="M1709.077,3941.31s244.352-19.077,412.535-91.319,178.565-66.05,222.168-72.242,128.733,10.32,230.473-84.626,91.359-80.5,91.359-80.5" transform="translate(-1612.58 -3422.07)" fill="none" stroke="#4dff5f" stroke-linecap="round" stroke-linejoin="round" stroke-width="5"/></g><g transform="matrix(1, 0, 0, 1, -1, 0)" filter="url(#e)"><path d="M1709.077,3959.2s125.518-14.264,179.719-94.139,165.455-65.611,208.245-65.611,236.773,17.116,345.174-116.96,225.361-85.581,225.361-85.581" transform="translate(-1612.58 -3440.43)" fill="none" stroke="#ffce47" stroke-linecap="round" stroke-linejoin="round" stroke-width="5"/></g></g></svg>