<svg xmlns="http://www.w3.org/2000/svg" xmlns:xlink="http://www.w3.org/1999/xlink" width="463.396" height="460.247" viewBox="0 0 463.396 460.247"><defs><clipPath id="a"><path d="M920.973,455.524c0,109.416-88.7,198.117-198.117,198.117a197.759,197.759,0,0,1-64.192-10.629s-25.743,18.231-55.822,17.343c-18.577-.542-62.431-22.567-76.371-78.027-3.9-15.506-1.716-110.078-1.716-126.789A197.738,197.738,0,0,1,596.8,302.691C631.054,274.4,675.51,200.14,723.4,200.14c47.873,0,223.258,46.8,261.286,154.037C1003.773,407.982,920.973,393.981,920.973,455.524Z" transform="translate(-524.145 -200.14)"/></clipPath></defs><g transform="translate(-378.263 -1184.034)"><g transform="translate(378.263 1184.034)"><g clip-path="url(#a)"><g transform="translate(313.862 275.37)"><path d="M752.427,389.731c3.161,4.4,4.607,9.755,6.338,14.889a121.881,121.881,0,0,0,12.269,25.863c4.968,7.919,11.125,16.485,9.379,25.653-2.183,1.385-4.034-2.213-6.248-3.553-2.559-1.55-6.1.467-7.121,3.267s-.226,5.931.843,8.716c.647,1.656,1.325,3.718.151,5.043-1.295,1.46-3.643.783-5.51.181a28.359,28.359,0,0,0-10.162-1.355c-1.7.09-3.658.5-4.441,2.017-.527,1.039-.331,2.273-.482,3.432-.557,4.215-6.94,6.112-9.71,2.875-1.6-1.867-1.776-4.516-1.882-6.97q-1.6-38.389-3.206-76.793C732.088,379.449,746.254,381.15,752.427,389.731Z" transform="translate(-732.629 -383.056)" fill="#f1ecdf"/><path d="M736.8,389.63c-1.4,5.962-.181,12.194,1.069,18.186q5.329,25.608,11.411,51.05a4.225,4.225,0,0,0,1.2,2.454c1.49,1.159,3.718-.105,5.555.376,1.987.527,3.643,2.845,5.013.392.858-1.536-2.168-7.286-2.68-8.822q-3.591-10.613-7.181-21.212Q743.988,410.849,736.8,389.63Z" transform="translate(-730.837 -379.732)" fill="#e2ded2"/></g><g transform="translate(20.269 35.099)"><g transform="translate(0)"><g transform="translate(0 155.641)"><g transform="translate(0 2.227)"><path d="M619.1,437.7c3.959,15.672,11.637,32.789,26.225,31.163,26.451-2.921,56.259-8.566,114.836-37.7.286-.15,28.5-19.149,28.5-19.149s14.317-18.321,12.45-27.249c1.28-.557,3.748-.421,4.7,1.084,3.718,5.916,1.249,13.4,1.249,13.4s29.04-19.044,29.687-15.988-13.459,14.528-13.459,14.528,23.124-15.205,22.747-11.983c-.15,1.249,0,0-17.93,16.093,0,0,19.676-9.228,17.629-5.751-2.575,4.366-15.9,13.594-15.9,13.594s15.3-6.955,13.474-4.215-38.961,26.526-38.961,26.526-45.284,38.6-52.42,43.673c-.135,0-.226-.03-.361-.03-44.576,31.389-102.521,61.979-128.926,54.693-22.431-6.187-44.456-49.153-55.325-73.466Z" transform="translate(-522.597 -300.717)" fill="#f29792"/><path d="M621.268,328.32c36.311.346,73.722,32.894,73.722,32.894s-42.3,100.97-35.5,121.339c5.028,15.054,48.159-1.9,48.159-1.9L721.666,539.2c-34.038,20.143-66.511,45.088-98.592,55.9-22.055,7.422-44.682-.03-60.158-15.657-20.986-21.2-26.661-65.758-25.051-91.908C549.323,401.831,587.682,327.989,621.268,328.32Z" transform="translate(-537.609 -328.319)" fill="#fff"/></g><path d="M779.245,395.7c-13.489-42.092-19.526-66.33-19.526-66.33s-17.493-1.716-41.987-2.529c-7.377,5.465-18.607,11.727-31.931,11.727-23.545,0-34.58-10.6-34.625-10.644-18.111,1.4-35.83,3.929-50.749,8.235-29.612,8.551-28.829,27.956-37.712,51.08-13.9,36.221,13.9,237.53,13.9,237.53l108.061,64.6L756.061,628.5C756.076,628.5,789.241,426.892,779.245,395.7Z" transform="translate(-526.885 -326.84)" fill="#fff"/></g><g transform="translate(72.645)"><g transform="translate(20.416)"><g transform="translate(0)"><path d="M842.432,401.438c1.535-24.659-35.529-29.913-39.985-51.908-1.807-8.912,2.574-17.9,7.708-25.487s11.291-14.829,13.73-23.605c4.923-17.719-6.955-36.161-22.01-47.211a92.584,92.584,0,0,0-51.381-17.689c-17.132-.557-34.128,3.643-51.275,3.357-8.777-.151-15.581-3.794-27.023-12.284a28.406,28.406,0,0,0-3.658,1.505,69.212,69.212,0,0,0-39.1,56.755,135.325,135.325,0,0,0-.241,19.3c1.144,18.427,7.783,38.028,23.635,48.159,16.153,10.327,34.294,10.1,50.071,20.971,13.158,9.063,23.124,23.425,33.255,35.619,22.476,27.083,67.911,33.406,96.228,10.764C838.081,415.137,841.995,408.588,842.432,401.438Z" transform="translate(-584.496 -221.86)" fill="#01143f"/><g transform="translate(0)"><g transform="translate(1.575 3.624)"><g transform="translate(0)"><path d="M675.786,228.192a37.931,37.931,0,0,1,10.3,5.615c29.025,22.13,17.343,71.825-4.065,95.852-11.848,13.308-30.41,20.775-47.768,16.334-25.4-6.5-35.875-32.713-33.436-57.222,1.822-18.261,10.237-36.176,24.193-48.189C638.933,228.569,658.8,222.1,675.786,228.192Z" transform="translate(-600.471 -225.862)" fill="#f29792"/><g transform="translate(88.789 57.457)"><path d="M659.45,295.013a19.852,19.852,0,0,0,19.315,2.288,20.529,20.529,0,0,0,11.366-15.672c.813-6.052-1.445-12.631-6.308-15.792s-12.856-2.153-16.184,2.936Z" transform="translate(-659.45 -264.028)" fill="#f29792"/></g><g transform="translate(36.806 72.062)"><path d="M685.65,350.041l-3.613-76.311L626.4,280.354l-1.475,75.287C645.093,353.263,665.356,351.5,685.65,350.041Z" transform="translate(-624.92 -273.73)" fill="#f29792"/></g><g transform="translate(37.227 103.782)"><path d="M625.2,323.6V311.857s24.765,4.787,44.32-17.057C669.52,294.8,659.4,318.165,625.2,323.6Z" transform="translate(-625.2 -294.8)" fill="#1f1a42"/></g><path d="M667.37,280.954c3.628,0,6.579-2.213,6.579-4.938,0-2.047-1.656-3.794-4.02-4.546" transform="translate(-566.658 -202.81)" fill="none" stroke="#e37d7a" stroke-linecap="round" stroke-miterlimit="10" stroke-width="1.762"/><g transform="translate(0.038 51.657)"><path d="M631.19,278.239c.376,2.905,4.351,4.8,8.867,4.26,4.532-.542,7.9-3.342,7.527-6.248s-4.351-4.8-8.867-4.26C634.185,272.548,630.813,275.348,631.19,278.239Z" transform="translate(-584.998 -254.25)" fill="#f58c89"/><path d="M616.236,279.958l-3.176-3.116c3.372-1.325,8.024-5.9,8.024-5.9l-1.671,8.054A1.9,1.9,0,0,1,616.236,279.958Z" transform="translate(-594.147 -254.735)" fill="#ec4e66" stroke="#ec4e66" stroke-miterlimit="10" stroke-width="1.722"/><path d="M611.717,274.9c0,2.921-3.7,5.284-8.265,5.284a11.777,11.777,0,0,1-2.68-.316,70.334,70.334,0,0,1-.181-9.921,12.407,12.407,0,0,1,2.86-.346C608.014,269.615,611.717,271.979,611.717,274.9Z" transform="translate(-600.497 -255.412)" fill="#f58c89"/><g transform="translate(40.312 1.791)"><path d="M628.7,262.185a25.092,25.092,0,0,0,.361,8.1,6.708,6.708,0,0,0,1.686,3.282,3.866,3.866,0,0,0,3.252.843c2.454-.2,4.245-2.469,5.419-4.8a30.7,30.7,0,0,0,2.439-7.768v-.03a.55.55,0,0,1,.617-.437.542.542,0,0,1,.437.572,25.931,25.931,0,0,1-2.078,8.325,12.5,12.5,0,0,1-2.484,3.7,6.877,6.877,0,0,1-4.14,2.108,6.432,6.432,0,0,1-2.394-.136c-.392-.151-.783-.286-1.159-.467l-1.008-.738a7.757,7.757,0,0,1-2.032-4.11,22.289,22.289,0,0,1,.181-8.6.458.458,0,0,1,.527-.361.445.445,0,0,1,.361.482Z" transform="translate(-627.274 -261.366)" fill="#222a46"/></g><g transform="translate(4.545)"><path d="M604.877,260.935a25.51,25.51,0,0,0,.316,6.79,6.325,6.325,0,0,0,1.219,2.815,2.536,2.536,0,0,0,2.409.828,3.822,3.822,0,0,0,2.454-1.4,12.11,12.11,0,0,0,1.671-2.77,30.85,30.85,0,0,0,1.867-6.549v-.03a.542.542,0,0,1,.617-.437.526.526,0,0,1,.436.557,24.216,24.216,0,0,1-1.475,7.045,12.024,12.024,0,0,1-1.882,3.252,5.5,5.5,0,0,1-3.478,2,3.091,3.091,0,0,1-1.054.015,3.226,3.226,0,0,1-1.054-.226,3.976,3.976,0,0,1-1.746-1.249,7.391,7.391,0,0,1-1.46-3.583,21.332,21.332,0,0,1,.241-7.2.449.449,0,0,1,.888.12Z" transform="translate(-603.516 -260.176)" fill="#222a46"/></g></g></g></g><g transform="translate(0 64.2)"><path d="M675.954,277.946a78.888,78.888,0,0,0-15.07,1.31c-10.372,2.032-22.853,5.856-34.49,5.209-12.119-.662-18.908-11.893-26.9-10.779,0,0-.15,7.3,0,8.9,2.86,31.419,27.7,56.439,69.1,35.152.783-.406,1.641-.723,2.454-1.1C671.046,316.652,682.638,292.775,675.954,277.946Z" transform="translate(-599.426 -262.305)" fill="#f1ecdf"/><g transform="translate(71.636)"><path d="M673.635,266.1l-24.283,16.951-.572,6.112L674.207,268.6Z" transform="translate(-646.115 -266.1)" fill="#f1ecdf"/><path d="M672.241,286.96l-25.126,16.966-.105,6.157,25.231-18.954Z" transform="translate(-647.01 -255.556)" fill="#f1ecdf"/></g></g><path d="M603.4,268.189s32.683,3.176,59.284-25.909c0,0,12.39,58.923,34.445,47.873l10.839-11.5s5.6-59.089-50.884-54.994C657.1,223.658,620.682,225.013,603.4,268.189Z" transform="translate(-597.417 -223.455)" fill="#01143f"/></g></g><g transform="translate(20.42 102.315)"><path d="M902.738,333.558s-21.483,23.621-77.982,21.573-118.9-26.1-136.138-9.62c0,0-45.344,9.71-33.015-5.465s52.344-53.714,89.454-48.069c37.109,5.63,80.557,36.567,129.438,11.276C874.5,303.254,903.265,315.147,902.738,333.558Z" transform="translate(-592.525 -291.418)" fill="#ec4e66"/><path d="M703.813,305.617S631.928,316.4,622.068,322c-9.861,5.585-12.27,36.628-4.336,42.288,27.249,19.481,95.626-17.508,98.246-37.245C718.6,307.288,715.059,303.66,703.813,305.617Z" transform="translate(-612.99 -284.478)" fill="#f15223"/></g></g><g transform="translate(0 85.049)"><path d="M703.981,490.788c-15.446,5.841-34.249,9.529-41.264-3.026C650,465,637.651,437.992,628.543,374.568c-.045-.316-.241-33.722-.241-33.722s7.2-21.934,15.792-25.563c-.271-1.34-1.792-3.222-3.613-3.116-7.121.422-11.983,6.7-11.983,6.7s-.632-34.083-3.568-32.849c-2.936,1.249-4.5,19.059-4.5,19.059s-.482-27.158-2.966-25.005c-.963.828,0,0-3.252,23.53,0,0-3.523-20.986-5.269-17.358-2.183,4.561-2.318,20.474-2.318,20.474s-2.921-16.184-4.185-13.173.03,46.292.03,46.292-6.5,58.246-6.669,66.857c.075.105.166.166.241.271-.843,53.549,6.669,117.3,27.941,134.181,18.065,14.332,66.857,7.256,93.564,1.972Z" transform="translate(-580.842 -279.949)" fill="#f29792"/><path d="M784.482,348.463c-17.373-21.889-59.766-20.881-59.766-20.881s-29.582,108.046-50.628,114.294c-15.551,4.622-29.01-101.392-29.01-101.392l-53.91,17.087c-6.654,105.622-.211,146.134,9.108,177.914,6.4,21.844,25.668,35.6,47.677,38.991,29.868,4.576,70.621-16.47,91.7-32.758C805.213,483.411,805.017,374.326,784.482,348.463Z" transform="translate(-584.565 -255.877)" fill="#fff"/><path d="M652.244,420.392C642.218,405.4,634.992,379.85,631.65,370.08" transform="translate(-562.721 -234.393)" fill="none" stroke="#503caa" stroke-linecap="round" stroke-miterlimit="10" stroke-width="4"/><path d="M589.621,368.35S565.609,539.474,638.985,554.3" transform="translate(-585.864 -235.267)" fill="none" stroke="#503caa" stroke-linecap="round" stroke-miterlimit="10" stroke-width="4"/></g></g></g></g><path d="M902.738,333.558s-21.483,23.621-77.982,21.573-118.9-26.1-136.138-9.62c0,0-45.344,9.71-33.015-5.465s52.344-53.714,89.454-48.069c37.109,5.63,80.557,36.567,129.438,11.276C874.5,303.254,903.265,315.147,902.738,333.558Z" transform="translate(-458.774 -154.004)" fill="#f15223"/></g></g></g></svg>